<?xml version="1.0" encoding="utf-8"?>
<svg version="1.1" xmlns="http://www.w3.org/2000/svg" xmlns:xlink="http://www.w3.org/1999/xlink" x="0px" y="0px"
	 viewBox="0 0 595.28 595.28" style="enable-background:new 0 0 595.28 595.28;" xml:space="preserve">
<style type="text/css">
	.st0{fill-rule:evenodd;clip-rule:evenodd;fill:#000000;}
	.st1{fill-rule:evenodd;clip-rule:evenodd;fill:#FFFFFF;}
</style>
<g id="Base">
</g>
<g id="Logo">
	<g>
		<path class="st0" d="M277.55,536.29c-45.22-37.75-82.8-81.51-111.67-130.07c-23.63-39.71-41.64-82.91-53.51-128.41
			c-8.64-33.13-14.03-67.98-16.01-103.58c-1.44-25.78,0.03-59.08,1.04-76.64l0.69-12.06l29.59-0.37
			c61.08-0.72,111.91-12.18,155.4-35.02l14.5-7.62l14.5,7.62c43.49,22.84,94.32,34.3,155.39,35.02l29.61,0.35l0.75,12.01
			c1.07,17.25,2.63,50.17,0.98,76.74c-2.27,36.66-7.66,71.5-16.02,103.55c-11.87,45.49-29.87,88.69-53.5,128.41
			c-28.89,48.56-66.47,92.33-111.68,130.07l-19.71,16.46l-0.32-0.26l-0.32,0.26L277.55,536.29z"/>
		<path class="st1" d="M285.85,526.35c-44.1-36.81-80.72-79.45-108.84-126.75c-23.01-38.67-40.55-80.74-52.11-125.05
			c-8.42-32.3-13.68-66.29-15.61-101.03c-1.44-25.71,0.16-59.92,1.04-75.18l17.51-0.22C191,97.37,243.76,85.43,289.1,61.62
			l8.48-4.45l8.47,4.45c45.35,23.82,98.1,35.76,161.27,36.51l17.58,0.21c0.93,15.03,2.62,48.67,0.98,75.14
			c-2.22,35.84-7.47,69.84-15.62,101.08c-11.56,44.31-29.09,86.38-52.1,125.05c-28.14,47.3-64.76,89.95-108.85,126.75l-11.45,9.57
			l-0.27-0.22l-0.27,0.22L285.85,526.35z"/>
		<path class="st0" d="M467.11,116.35c-59.02-0.7-116.7-10.85-169.53-38.6c-52.83,27.75-110.51,37.9-169.53,38.6
			c-0.62,16.05-23.99,234.52,169.48,396.01c0.01-0.01,0.03-0.02,0.05-0.04c0.01,0.01,0.04,0.03,0.05,0.04
			C491.09,350.87,467.72,132.4,467.11,116.35z"/>
		<polygon class="st1" points="156.19,151.46 438.97,151.46 432.13,167.01 328.3,167.01 328.3,167.16 180.54,167.16 297.57,434.1 
			352.4,309.37 369.56,309.37 297.58,473.11 		"/>
		<path class="st1" d="M286.6,186.4v-0.95h-60.86v12.39v38.68l14.08,32.16v-32.21h32.71v106.56l14.07,32.4V186.4L286.6,186.4z
			 M272.53,218.91l-0.01,3.4h-32.69v-22.72h32.71V218.91z"/>
		<polygon class="st1" points="348.71,222.31 348.71,236.43 322.87,236.43 322.87,343.04 308.69,375.43 308.69,197.85 
			308.69,186.77 308.69,185.45 369.56,185.45 369.56,199.59 322.87,199.59 322.87,222.31 		"/>
	</g>
</g>
</svg>
