<svg width="1052" height="1052" viewBox="0 0 1052 1052" fill="none" xmlns="http://www.w3.org/2000/svg">
<path fill-rule="evenodd" clip-rule="evenodd" d="M490.496 947.75C410.582 881.037 344.169 803.703 293.149 717.886C251.39 647.709 219.562 571.364 198.585 490.955C183.316 432.406 173.79 370.818 170.291 307.905C167.746 262.345 170.344 203.496 172.129 172.464L173.348 151.151L225.641 150.497C333.584 149.225 423.412 128.972 500.269 88.6084L525.894 75.1421L551.519 88.6084C628.376 128.972 718.205 149.225 826.13 150.497L878.458 151.116L879.783 172.34C881.674 202.825 884.431 261.002 881.515 307.958C877.503 372.745 867.978 434.315 853.204 490.955C832.227 571.347 800.416 647.691 758.657 717.886C707.601 803.703 641.189 881.055 561.292 947.75L526.46 976.839L525.894 976.379L525.329 976.839L490.496 947.75Z" fill="#373737"/>
<path fill-rule="evenodd" clip-rule="evenodd" d="M505.164 930.187C427.229 865.135 362.513 789.78 312.818 706.19C272.154 637.851 241.157 563.503 220.728 485.197C205.848 428.116 196.552 368.047 193.141 306.653C190.596 261.218 193.424 200.761 194.979 173.793L225.923 173.404C337.542 172.079 430.781 150.978 510.908 108.9L525.894 101.036L540.862 108.9C621.007 150.995 714.228 172.096 825.865 173.422L856.933 173.793C858.576 200.354 861.563 259.804 858.665 306.583C854.741 369.921 845.463 430.007 831.06 485.215C810.631 563.521 779.651 637.869 738.987 706.208C689.257 789.798 624.541 865.171 546.624 930.205L526.389 947.117L525.912 946.729L525.435 947.117L505.164 930.187Z" fill="white" fill-opacity="0.28"/>
<path fill-rule="evenodd" clip-rule="evenodd" d="M825.493 205.621C721.191 204.383 619.257 186.446 525.894 137.405C432.531 186.446 330.597 204.383 226.294 205.621C225.199 233.985 183.898 620.073 525.805 905.463C525.823 905.446 525.858 905.428 525.894 905.393C525.911 905.41 525.964 905.446 525.982 905.463C867.871 620.073 826.571 233.985 825.493 205.621Z" fill="#373737"/>
<path fill-rule="evenodd" clip-rule="evenodd" d="M276.025 267.666H775.764L763.676 295.147H580.184V295.412H319.057L525.877 767.158L622.774 546.73H653.1L525.895 836.097L276.025 267.666Z" fill="white" fill-opacity="0.28"/>
<path fill-rule="evenodd" clip-rule="evenodd" d="M506.49 329.415V327.736H398.936V349.632V417.989L423.819 474.823V417.9H481.625V606.217L506.49 663.475V329.415ZM481.625 386.868L481.608 392.876H423.837V352.725H481.643V386.868H481.625Z" fill="white" fill-opacity="0.28"/>
<path fill-rule="evenodd" clip-rule="evenodd" d="M616.253 392.876V417.83H570.587V606.235L545.528 663.475V349.65V330.069V327.736H653.099V352.725H570.587V392.876H616.253Z" fill="white" fill-opacity="0.28"/>
</svg>
